<svg width="21" height="24" viewBox="0 0 21 24" fill="none" xmlns="http://www.w3.org/2000/svg">
<path d="M10.5572 13.4505C14.0633 13.4505 16.9055 10.529 16.9055 6.92525C16.9055 3.32147 14.0633 0.400024 10.5572 0.400024C7.05119 0.400024 4.20898 3.32147 4.20898 6.92525C4.20898 10.529 7.05119 13.4505 10.5572 13.4505Z" fill="white"/>
<path d="M20.0004 20.3968C18.3877 16.7132 14.7529 14.1347 10.5804 14.1347C6.5616 14.1347 3.10591 16.4764 1.36526 19.8969C1.05809 20.3179 0.878906 20.8178 0.878906 21.3703C0.878906 22.7385 1.95401 23.8173 3.25949 23.8173H17.799C19.1301 23.8173 20.1796 22.7122 20.1796 21.3703C20.1796 21.0283 20.1284 20.6862 20.0004 20.3968Z" fill="white"/>
</svg>
