<svg width="25" height="23" viewBox="0 0 25 23" fill="none" xmlns="http://www.w3.org/2000/svg">
<path d="M12.1379 7.88194L22.9691 0.618719C22.4582 0.228657 21.8323 0 21.1554 0H3.10766C2.43071 0 1.80485 0.228657 1.29395 0.618719L12.1379 7.88194Z" fill="white"/>
<path d="M13.0819 11.1636C12.8775 11.325 12.6476 11.4191 12.4049 11.4729H12.3921C12.3538 11.4729 12.3155 11.4864 12.2772 11.4864C12.2644 11.4864 12.2389 11.4864 12.2261 11.4864C12.2006 11.4864 12.175 11.4864 12.1495 11.4864C12.1239 11.4864 12.0984 11.4864 12.0728 11.4864C12.0601 11.4864 12.0345 11.4864 12.0217 11.4864C11.9834 11.4864 11.9451 11.4729 11.9068 11.4729H11.894C11.6513 11.4326 11.4214 11.325 11.2171 11.1636L0.0410156 3.69861V5.46061V8.76941V9.53609V19.7718C0.0410156 21.5608 1.40769 22.9999 3.10644 22.9999H21.1542C22.8529 22.9999 24.2196 21.5608 24.2196 19.7718V9.53609V8.76941V5.46061V3.69861L13.0819 11.1636Z" fill="white"/>
</svg>
