<svg width="24" height="24" viewBox="0 0 24 24" fill="none" xmlns="http://www.w3.org/2000/svg">
<path d="M0.986328 24L2.58239 17.837C1.5975 16.033 1.07999 13.988 1.08094 11.891C1.08378 5.335 6.13119 0 12.3328 0C15.3424 0.001 18.1674 1.24 20.2923 3.488C22.4163 5.736 23.5857 8.724 23.5847 11.902C23.5819 18.459 18.5345 23.794 12.3328 23.794C10.4501 23.793 8.59481 23.294 6.95145 22.346L0.986328 24ZM18.0009 14.729C17.9309 14.605 17.7435 14.531 17.4616 14.382C17.1806 14.233 15.7984 13.514 15.5401 13.415C15.2828 13.316 15.0954 13.266 14.9072 13.564C14.7198 13.861 14.1806 14.531 14.0169 14.729C13.8532 14.927 13.6886 14.952 13.4076 14.803C13.1266 14.654 12.2202 14.341 11.1464 13.328C10.311 12.54 9.74621 11.567 9.58254 11.269C9.41886 10.972 9.56551 10.811 9.70553 10.663C9.8323 10.53 9.98652 10.316 10.1275 10.142C10.2703 9.97 10.3167 9.846 10.4113 9.647C10.505 9.449 10.4586 9.275 10.3877 9.126C10.3167 8.978 9.75472 7.515 9.52104 6.92C9.29208 6.341 9.06029 6.419 8.8881 6.41L8.34883 6.4C8.1615 6.4 7.85686 6.474 7.59952 6.772C7.34219 7.07 6.61559 7.788 6.61559 9.251C6.61559 10.714 7.62318 12.127 7.7632 12.325C7.90417 12.523 9.74526 15.525 12.5656 16.812C13.2363 17.118 13.7605 17.301 14.1683 17.438C14.8419 17.664 15.4549 17.632 15.9393 17.556C16.4796 17.471 17.6026 16.837 17.8372 16.143C18.0718 15.448 18.0718 14.853 18.0009 14.729Z" fill="white"/>
</svg>
